<svg xmlns="http://www.w3.org/2000/svg" viewBox="0 0 512 512" role="img" aria-label="Insect identifier icon">
  <defs>
    <linearGradient id="g" x1="0" y1="0" x2="1" y2="1">
      <stop offset="0" stop-color="#2e7d32"/>
      <stop offset="1" stop-color="#43a047"/>
    </linearGradient>
  </defs>
  <rect width="512" height="512" rx="112" fill="url(#g)"/>
  <circle cx="256" cy="150" r="120" fill="#ffffff" opacity="0.10"/>
  <g fill="none" stroke="#ffffff" stroke-width="18" stroke-linecap="round">
    <path d="M232 196 q-26 -34 -54 -44"/>
    <path d="M280 196 q26 -34 54 -44"/>
    <path d="M196 282 q-50 -10 -78 -40"/>
    <path d="M192 322 q-54 0 -86 22"/>
    <path d="M196 360 q-50 12 -74 44"/>
    <path d="M316 282 q50 -10 78 -40"/>
    <path d="M320 322 q54 0 86 22"/>
    <path d="M316 360 q50 12 74 44"/>
  </g>
  <circle cx="256" cy="210" r="34" fill="#ffffff"/>
  <ellipse cx="256" cy="330" rx="80" ry="112" fill="#ffffff"/>
  <line x1="256" y1="238" x2="256" y2="432" stroke="#2e7d32" stroke-width="14" stroke-linecap="round"/>
  <circle cx="222" cy="300" r="12" fill="#2e7d32"/>
  <circle cx="290" cy="300" r="12" fill="#2e7d32"/>
  <circle cx="222" cy="362" r="12" fill="#2e7d32"/>
  <circle cx="290" cy="362" r="12" fill="#2e7d32"/>
</svg>
